<?xml version="1.0" encoding="utf-8"?>
<!-- Generator: Adobe Illustrator 22.0.0, SVG Export Plug-In . SVG Version: 6.00 Build 0)  -->
<svg version="1.1" id="Layer_1" xmlns="http://www.w3.org/2000/svg" xmlns:xlink="http://www.w3.org/1999/xlink" x="0px" y="0px"
	 viewBox="0 0 576 512" style="enable-background:new 0 0 576 512;" xml:space="preserve">
<style type="text/css">
	.st0{fill:#03A396;}
	.st1{fill:#CBCBCB;}
</style>
<g>
	<g>
		<path class="st0" d="M544.5,277.3C544.5,277.3,544.5,277.3,544.5,277.3C544.5,277.3,544.5,277.3,544.5,277.3
			C544.5,277.3,544.5,277.3,544.5,277.3C544.5,277.3,544.5,277.3,544.5,277.3C544.5,277.3,544.5,277.3,544.5,277.3
			C544.5,277.3,544.5,277.3,544.5,277.3C544.5,277.3,544.5,277.3,544.5,277.3C544.5,277.3,544.5,277.3,544.5,277.3
			C544.5,277.3,544.5,277.3,544.5,277.3C544.5,277.3,544.5,277.3,544.5,277.3C544.5,277.3,544.5,277.3,544.5,277.3
			C544.5,277.3,544.5,277.3,544.5,277.3C544.5,277.3,544.5,277.3,544.5,277.3C544.5,277.3,544.5,277.3,544.5,277.3
			C544.5,277.3,544.5,277.3,544.5,277.3C544.5,277.3,544.5,277.3,544.5,277.3C544.5,277.3,544.5,277.3,544.5,277.3
			C544.5,277.3,544.5,277.3,544.5,277.3C544.5,277.3,544.5,277.3,544.5,277.3C544.4,277.3,544.4,277.3,544.5,277.3
			C544.4,277.3,544.4,277.3,544.5,277.3C544.4,277.3,544.4,277.3,544.5,277.3C544.4,277.3,544.4,277.3,544.5,277.3
			C544.4,277.3,544.4,277.3,544.5,277.3C544.4,277.3,544.4,277.3,544.5,277.3C544.4,277.3,544.4,277.3,544.5,277.3
			C544.4,277.3,544.4,277.3,544.5,277.3C544.4,277.3,544.4,277.3,544.5,277.3C544.4,277.3,544.4,277.3,544.5,277.3
			C544.4,277.3,544.4,277.3,544.5,277.3C544.4,277.3,544.4,277.3,544.5,277.3C544.4,277.3,544.4,277.3,544.5,277.3
			C544.4,277.3,544.4,277.3,544.5,277.3C544.4,277.3,544.4,277.3,544.5,277.3C544.4,277.3,544.4,277.3,544.5,277.3
			C544.4,277.3,544.4,277.3,544.5,277.3C544.4,277.3,544.4,277.3,544.5,277.3C544.4,277.3,544.4,277.3,544.5,277.3
			C544.4,277.3,544.4,277.3,544.5,277.3C544.5,277.3,544.5,277.3,544.5,277.3C544.5,277.3,544.5,277.3,544.5,277.3
			C544.5,277.3,544.5,277.3,544.5,277.3C544.5,277.3,544.5,277.3,544.5,277.3C544.5,277.3,544.5,277.3,544.5,277.3
			C544.5,277.3,544.5,277.3,544.5,277.3C544.5,277.3,544.5,277.3,544.5,277.3C544.5,277.3,544.5,277.3,544.5,277.3
			C544.5,277.3,544.5,277.3,544.5,277.3C544.5,277.3,544.5,277.3,544.5,277.3C544.5,277.3,544.5,277.3,544.5,277.3
			C544.5,277.3,544.5,277.3,544.5,277.3C544.5,277.3,544.5,277.3,544.5,277.3C544.5,277.3,544.5,277.3,544.5,277.3
			C544.5,277.3,544.5,277.3,544.5,277.3C544.5,277.3,544.5,277.3,544.5,277.3C544.5,277.3,544.5,277.3,544.5,277.3
			C544.5,277.3,544.5,277.3,544.5,277.3C544.5,277.3,544.4,277.3,544.5,277.3C544.4,277.3,544.4,277.3,544.5,277.3
			C544.4,277.3,544.4,277.3,544.5,277.3C544.4,277.3,544.4,277.3,544.5,277.3C544.4,277.3,544.4,277.3,544.5,277.3
			C544.4,277.3,544.4,277.3,544.5,277.3C544.4,277.3,544.4,277.3,544.5,277.3C544.4,277.3,544.4,277.3,544.5,277.3
			C544.4,277.3,544.4,277.3,544.5,277.3C544.4,277.3,544.4,277.3,544.5,277.3C544.4,277.3,544.4,277.3,544.5,277.3
			C544.4,277.3,544.4,277.3,544.5,277.3C544.4,277.3,544.4,277.3,544.5,277.3C544.4,277.3,544.4,277.3,544.5,277.3
			C544.4,277.3,544.4,277.3,544.5,277.3C544.4,277.3,544.4,277.3,544.5,277.3C544.4,277.3,544.4,277.3,544.5,277.3
			C544.4,277.3,544.4,277.3,544.5,277.3C544.4,277.3,544.4,277.3,544.5,277.3C544.4,277.3,544.4,277.3,544.5,277.3
			C544.4,277.3,544.4,277.3,544.5,277.3C544.4,277.3,544.4,277.3,544.5,277.3C544.4,277.3,544.4,277.3,544.5,277.3
			C544.4,277.3,544.4,277.3,544.5,277.3C544.4,277.3,544.4,277.3,544.5,277.3C544.4,277.3,544.4,277.3,544.5,277.3
			C544.4,277.3,544.4,277.3,544.5,277.3C544.4,277.3,544.4,277.3,544.5,277.3C544.4,277.3,544.4,277.3,544.5,277.3
			C544.4,277.3,544.4,277.3,544.5,277.3C544.4,277.3,544.4,277.3,544.5,277.3C544.5,277.3,544.5,277.3,544.5,277.3
			C544.5,277.3,544.5,277.3,544.5,277.3C544.5,277.3,544.5,277.3,544.5,277.3z M544.4,277.3C544.4,277.3,544.4,277.3,544.4,277.3
			C544.4,277.3,544.4,277.3,544.4,277.3C544.4,277.3,544.4,277.3,544.4,277.3C544.4,277.3,544.4,277.3,544.4,277.3
			C544.4,277.3,544.4,277.3,544.4,277.3C544.4,277.3,544.4,277.3,544.4,277.3C544.4,277.3,544.4,277.3,544.4,277.3
			C544.4,277.3,544.4,277.3,544.4,277.3C544.4,277.3,544.4,277.3,544.4,277.3z"/>
		<path class="st0" d="M544.5,277.3C544.5,277.3,544.5,277.3,544.5,277.3C544.5,277.3,544.5,277.3,544.5,277.3
			C544.5,277.3,544.5,277.3,544.5,277.3C544.5,277.3,544.5,277.3,544.5,277.3C544.5,277.3,544.5,277.3,544.5,277.3
			C544.5,277.3,544.5,277.3,544.5,277.3C544.5,277.3,544.5,277.3,544.5,277.3C544.5,277.3,544.5,277.3,544.5,277.3
			C544.5,277.3,544.5,277.3,544.5,277.3C544.5,277.3,544.5,277.3,544.5,277.3C544.5,277.3,544.5,277.3,544.5,277.3
			C544.5,277.3,544.5,277.3,544.5,277.3C544.5,277.3,544.5,277.3,544.5,277.3C544.5,277.3,544.5,277.3,544.5,277.3
			C544.5,277.3,544.5,277.3,544.5,277.3C544.5,277.3,544.5,277.3,544.5,277.3C544.5,277.3,544.5,277.3,544.5,277.3
			C544.5,277.3,544.5,277.3,544.5,277.3C544.5,277.3,544.5,277.3,544.5,277.3C544.5,277.3,544.5,277.3,544.5,277.3
			C544.5,277.3,544.5,277.3,544.5,277.3C544.5,277.3,544.5,277.3,544.5,277.3C544.5,277.3,544.5,277.3,544.5,277.3
			C544.5,277.3,544.5,277.3,544.5,277.3C544.5,277.3,544.5,277.3,544.5,277.3C544.5,277.3,544.5,277.3,544.5,277.3
			C544.5,277.3,544.5,277.3,544.5,277.3C544.5,277.3,544.5,277.3,544.5,277.3C544.5,277.3,544.5,277.3,544.5,277.3
			C544.5,277.3,544.5,277.3,544.5,277.3C544.5,277.3,544.5,277.3,544.5,277.3C544.5,277.3,544.5,277.3,544.5,277.3
			C544.5,277.3,544.5,277.3,544.5,277.3C544.5,277.3,544.5,277.3,544.5,277.3C544.5,277.3,544.5,277.3,544.5,277.3
			C544.5,277.3,544.5,277.3,544.5,277.3C544.5,277.3,544.5,277.3,544.5,277.3C544.5,277.3,544.5,277.3,544.5,277.3z"/>
		<path class="st0" d="M544.5,277.3C544.5,277.3,544.5,277.3,544.5,277.3C544.5,277.3,544.5,277.3,544.5,277.3
			C544.5,277.3,544.5,277.3,544.5,277.3C544.5,277.3,544.5,277.3,544.5,277.3C544.5,277.3,544.5,277.3,544.5,277.3
			C544.5,277.3,544.5,277.3,544.5,277.3C544.5,277.3,544.5,277.3,544.5,277.3C544.5,277.3,544.5,277.3,544.5,277.3
			C544.5,277.3,544.5,277.3,544.5,277.3C544.5,277.3,544.5,277.3,544.5,277.3C544.5,277.3,544.5,277.3,544.5,277.3
			C544.5,277.3,544.5,277.3,544.5,277.3C544.5,277.3,544.5,277.3,544.5,277.3C544.5,277.3,544.5,277.3,544.5,277.3
			C544.5,277.3,544.5,277.3,544.5,277.3C544.5,277.3,544.5,277.3,544.5,277.3C544.5,277.3,544.5,277.3,544.5,277.3
			C544.5,277.3,544.5,277.3,544.5,277.3C544.5,277.3,544.5,277.3,544.5,277.3C544.5,277.3,544.5,277.3,544.5,277.3
			C544.5,277.3,544.5,277.3,544.5,277.3C544.5,277.3,544.5,277.3,544.5,277.3C544.5,277.3,544.5,277.3,544.5,277.3
			C544.5,277.3,544.5,277.3,544.5,277.3C544.5,277.3,544.5,277.3,544.5,277.3z"/>
		<path class="st0" d="M544.5,277.3C544.5,277.3,544.5,277.3,544.5,277.3C544.5,277.3,544.5,277.3,544.5,277.3
			C544.5,277.3,544.5,277.3,544.5,277.3C544.5,277.3,544.5,277.3,544.5,277.3C544.5,277.3,544.5,277.3,544.5,277.3
			C544.5,277.3,544.5,277.3,544.5,277.3C544.5,277.3,544.5,277.3,544.5,277.3C544.5,277.3,544.5,277.3,544.5,277.3
			C544.5,277.3,544.5,277.3,544.5,277.3C544.5,277.3,544.5,277.3,544.5,277.3C544.5,277.3,544.5,277.3,544.5,277.3
			C544.5,277.3,544.5,277.3,544.5,277.3C544.5,277.3,544.5,277.3,544.5,277.3C544.5,277.3,544.5,277.3,544.5,277.3
			C544.5,277.3,544.5,277.3,544.5,277.3C544.5,277.3,544.5,277.3,544.5,277.3C544.5,277.3,544.5,277.3,544.5,277.3
			C544.5,277.3,544.5,277.3,544.5,277.3C544.5,277.3,544.5,277.3,544.5,277.3C544.5,277.3,544.5,277.3,544.5,277.3
			C544.5,277.3,544.5,277.3,544.5,277.3C544.5,277.3,544.5,277.3,544.5,277.3z"/>
		<polygon class="st0" points="544.5,277.3 544.5,277.3 544.5,277.3 544.5,277.3 544.5,277.3 544.5,277.3 544.5,277.3 544.5,277.3 
			544.5,277.3 544.5,277.3 544.5,277.3 544.5,277.3 544.5,277.3 544.5,277.3 544.5,277.3 544.5,277.3 544.5,277.3 544.5,277.3 
			544.5,277.3 544.5,277.3 		"/>
		<polygon class="st0" points="544.5,277.3 544.5,277.3 544.5,277.3 544.5,277.3 544.5,277.3 544.5,277.3 544.5,277.3 544.5,277.3 
			544.5,277.3 544.5,277.3 544.5,277.3 544.5,277.3 544.5,277.3 544.5,277.3 		"/>
		<path class="st0" d="M544.5,277.3C544.5,277.3,544.5,277.3,544.5,277.3C544.5,277.3,544.5,277.3,544.5,277.3
			C544.5,277.3,544.5,277.3,544.5,277.3C544.5,277.3,544.5,277.3,544.5,277.3C544.5,277.3,544.5,277.3,544.5,277.3
			C544.5,277.3,544.5,277.3,544.5,277.3C544.5,277.3,544.5,277.3,544.5,277.3C544.5,277.3,544.5,277.3,544.5,277.3
			C544.5,277.3,544.5,277.3,544.5,277.3z M544.5,277.3C544.5,277.3,544.5,277.3,544.5,277.3C544.5,277.3,544.5,277.3,544.5,277.3
			C544.5,277.3,544.5,277.3,544.5,277.3C544.5,277.3,544.5,277.3,544.5,277.3C544.5,277.3,544.5,277.3,544.5,277.3
			C544.5,277.3,544.5,277.3,544.5,277.3C544.5,277.3,544.5,277.3,544.5,277.3z"/>
	</g>
	<path class="st1" d="M544.5,277.3C544.5,277.3,544.5,277.3,544.5,277.3C544.5,277.3,544.5,277.3,544.5,277.3
		C544.5,277.3,544.5,277.3,544.5,277.3C544.5,277.3,544.5,277.3,544.5,277.3C544.5,277.3,544.5,277.3,544.5,277.3
		C544.5,277.3,544.5,277.3,544.5,277.3C544.5,277.3,544.5,277.3,544.5,277.3C544.5,277.3,544.5,277.3,544.5,277.3
		C544.5,277.3,544.5,277.3,544.5,277.3C544.5,277.3,544.5,277.3,544.5,277.3C544.5,277.3,544.5,277.3,544.5,277.3
		C544.5,277.3,544.5,277.3,544.5,277.3C544.5,277.3,544.5,277.3,544.5,277.3z M544.5,277.3C544.5,277.3,544.5,277.3,544.5,277.3
		C544.5,277.3,544.5,277.3,544.5,277.3C544.5,277.3,544.5,277.3,544.5,277.3C544.5,277.3,544.5,277.3,544.5,277.3
		C544.5,277.3,544.5,277.3,544.5,277.3C544.5,277.3,544.5,277.3,544.5,277.3z M544.5,277.3C544.5,277.3,544.5,277.3,544.5,277.3
		C544.5,277.3,544.5,277.3,544.5,277.3C544.5,277.3,544.5,277.3,544.5,277.3C544.5,277.3,544.5,277.3,544.5,277.3
		C544.5,277.3,544.5,277.3,544.5,277.3C544.5,277.3,544.5,277.3,544.5,277.3C544.5,277.3,544.5,277.3,544.5,277.3z"/>
	<path class="st1" d="M544.5,277.3C544.5,277.3,544.5,277.3,544.5,277.3C544.5,277.3,544.5,277.3,544.5,277.3
		C544.5,277.3,544.5,277.3,544.5,277.3C544.5,277.3,544.5,277.3,544.5,277.3C544.5,277.3,544.5,277.3,544.5,277.3
		C544.5,277.3,544.5,277.3,544.5,277.3C544.5,277.3,544.5,277.3,544.5,277.3C544.5,277.3,544.5,277.3,544.5,277.3
		C544.5,277.3,544.5,277.3,544.5,277.3C544.5,277.3,544.5,277.3,544.5,277.3C544.5,277.3,544.5,277.3,544.5,277.3
		C544.5,277.3,544.5,277.3,544.5,277.3C544.5,277.3,544.5,277.3,544.5,277.3C544.5,277.3,544.5,277.3,544.5,277.3
		C544.5,277.3,544.5,277.3,544.5,277.3C544.5,277.3,544.5,277.3,544.5,277.3C544.5,277.3,544.5,277.3,544.5,277.3
		C544.5,277.3,544.5,277.3,544.5,277.3C544.5,277.3,544.5,277.3,544.5,277.3z M544.5,277.3C544.5,277.3,544.5,277.3,544.5,277.3
		C544.5,277.3,544.5,277.3,544.5,277.3C544.5,277.3,544.5,277.3,544.5,277.3C544.5,277.3,544.5,277.3,544.5,277.3
		C544.5,277.3,544.5,277.3,544.5,277.3z"/>
	<path class="st1" d="M544.5,277.3C544.5,277.3,544.5,277.3,544.5,277.3C544.5,277.3,544.5,277.3,544.5,277.3
		C544.5,277.3,544.5,277.3,544.5,277.3C544.5,277.3,544.5,277.3,544.5,277.3C544.5,277.3,544.5,277.3,544.5,277.3
		C544.5,277.3,544.5,277.3,544.5,277.3C544.5,277.3,544.5,277.3,544.5,277.3C544.5,277.3,544.5,277.3,544.5,277.3
		C544.5,277.3,544.5,277.3,544.5,277.3C544.5,277.3,544.5,277.3,544.5,277.3C544.5,277.3,544.5,277.3,544.5,277.3
		C544.5,277.3,544.5,277.3,544.5,277.3C544.5,277.3,544.5,277.3,544.5,277.3C544.5,277.3,544.5,277.3,544.5,277.3
		C544.5,277.3,544.5,277.3,544.5,277.3C544.5,277.3,544.5,277.3,544.5,277.3C544.5,277.3,544.5,277.3,544.5,277.3
		C544.5,277.3,544.5,277.3,544.5,277.3z M544.5,277.3C544.5,277.3,544.5,277.3,544.5,277.3C544.5,277.3,544.5,277.3,544.5,277.3
		C544.5,277.3,544.5,277.3,544.5,277.3C544.5,277.3,544.5,277.3,544.5,277.3C544.5,277.3,544.5,277.3,544.5,277.3
		C544.5,277.3,544.5,277.3,544.5,277.3C544.5,277.3,544.5,277.3,544.5,277.3z"/>
	<path class="st1" d="M544.5,277.3C544.5,277.3,544.5,277.3,544.5,277.3C544.5,277.3,544.5,277.3,544.5,277.3
		C544.5,277.3,544.5,277.3,544.5,277.3C544.5,277.3,544.5,277.3,544.5,277.3C544.5,277.3,544.5,277.3,544.5,277.3
		C544.5,277.3,544.5,277.3,544.5,277.3C544.5,277.3,544.5,277.3,544.5,277.3C544.5,277.3,544.5,277.3,544.5,277.3
		C544.5,277.3,544.5,277.3,544.5,277.3C544.5,277.3,544.5,277.3,544.5,277.3C544.5,277.3,544.5,277.3,544.5,277.3
		C544.5,277.3,544.5,277.3,544.5,277.3C544.5,277.3,544.5,277.3,544.5,277.3z M544.5,277.3C544.5,277.3,544.5,277.3,544.5,277.3
		C544.5,277.3,544.5,277.3,544.5,277.3C544.5,277.3,544.5,277.3,544.5,277.3C544.5,277.3,544.5,277.3,544.5,277.3
		C544.5,277.3,544.5,277.3,544.5,277.3z"/>
	<polygon class="st1" points="544.5,277.3 544.5,277.3 544.5,277.3 544.5,277.3 544.5,277.3 544.5,277.3 544.5,277.3 544.5,277.3 
		544.5,277.3 544.5,277.3 544.5,277.3 544.5,277.3 544.5,277.3 544.5,277.3 	"/>
	<polygon class="st1" points="544.5,277.3 544.5,277.3 544.5,277.3 544.5,277.3 544.5,277.3 544.5,277.3 544.5,277.3 544.5,277.3 
		544.5,277.3 544.5,277.3 544.5,277.3 544.5,277.3 544.5,277.3 	"/>
	<polygon class="st1" points="544.5,277.3 544.5,277.3 544.5,277.3 544.5,277.3 544.5,277.3 544.5,277.3 544.5,277.3 544.5,277.3 
		544.5,277.3 	"/>
	<polygon class="st1" points="544.4,277.3 544.4,277.3 544.4,277.3 544.4,277.3 544.4,277.3 544.4,277.3 544.4,277.3 544.4,277.3 
		544.4,277.3 	"/>
	<polygon class="st1" points="544.4,277.3 544.4,277.3 544.4,277.3 544.4,277.3 544.4,277.3 544.4,277.3 544.4,277.3 544.4,277.3 
		544.4,277.3 544.4,277.3 544.4,277.3 544.4,277.3 544.4,277.3 544.4,277.3 544.4,277.3 544.4,277.3 544.4,277.3 544.4,277.3 	"/>
	<path class="st1" d="M544.4,277.3C544.4,277.3,544.4,277.3,544.4,277.3C544.4,277.3,544.4,277.3,544.4,277.3
		C544.4,277.3,544.4,277.3,544.4,277.3C544.4,277.3,544.4,277.3,544.4,277.3C544.4,277.3,544.4,277.3,544.4,277.3
		C544.4,277.3,544.4,277.3,544.4,277.3C544.4,277.3,544.4,277.3,544.4,277.3C544.4,277.3,544.4,277.3,544.4,277.3
		C544.4,277.3,544.4,277.3,544.4,277.3C544.4,277.3,544.4,277.3,544.4,277.3C544.4,277.3,544.4,277.3,544.4,277.3
		C544.4,277.3,544.4,277.3,544.4,277.3z"/>
	<path class="st1" d="M544.4,277.3C544.4,277.3,544.4,277.3,544.4,277.3C544.4,277.3,544.4,277.3,544.4,277.3
		C544.4,277.3,544.4,277.3,544.4,277.3C544.4,277.3,544.4,277.3,544.4,277.3C544.4,277.3,544.4,277.3,544.4,277.3
		C544.4,277.3,544.4,277.3,544.4,277.3C544.4,277.3,544.4,277.3,544.4,277.3C544.4,277.3,544.4,277.3,544.4,277.3
		C544.4,277.3,544.4,277.3,544.4,277.3z"/>
</g>
</svg>
