<?xml version="1.0" encoding="utf-8"?>
<!-- Generator: Adobe Illustrator 22.0.0, SVG Export Plug-In . SVG Version: 6.00 Build 0)  -->
<svg version="1.1" id="Layer_1" xmlns="http://www.w3.org/2000/svg" xmlns:xlink="http://www.w3.org/1999/xlink" x="0px" y="0px"
	 viewBox="0 0 576 512" style="enable-background:new 0 0 576 512;" xml:space="preserve">
<style type="text/css">
	.st0{fill:#23FF00;}
</style>
<path class="st0" d="M507.6,154.9l-146.1-21.3L296.2,1.2c-11.7-23.6-45.6-23.9-57.4,0l-65.3,132.4L27.4,154.9
	C1.2,158.7-9.3,191,9.7,209.5l105.7,103L90.4,458c-4.5,26.3,23.2,46,46.4,33.7L267.5,423l130.7,68.7c23.2,12.2,50.9-7.4,46.4-33.7
	l-25-145.5l105.7-103C544.3,191,533.8,158.7,507.6,154.9L507.6,154.9z M368.1,295.7l23.7,138.4l-124.3-65.3l-124.3,65.3l23.7-138.4
	l-100.6-98l139-20.2l62.2-126l62.2,126l139,20.2L368.1,295.7L368.1,295.7z"/>
</svg>
